<svg width="5000" height="1312" viewBox="0 0 5000 1312" fill="none" xmlns="http://www.w3.org/2000/svg">
<path d="M1176.85 671.745C1176.85 614.455 1136.28 566.492 1082.36 555.004V373.814L698.182 152.012C701.137 141.625 702.824 130.7 702.824 119.384C702.824 53.5533 649.266 0 583.426 0C517.595 0 464.047 53.5533 464.047 119.384C464.047 130.709 465.733 141.63 468.694 152.016L202.739 305.562C181.358 285.435 152.667 272.999 121.053 272.999C55.2216 272.999 1.66366 326.557 1.66366 392.397C1.66366 445.477 36.5077 490.526 84.5123 506.001L84.5031 817.083C35.6433 832.047 0 877.551 0 931.239C0 997.07 53.558 1050.63 119.389 1050.63C151.268 1050.63 180.201 1037.99 201.638 1017.56L466.193 1170.29C464.836 1177.48 464.051 1184.87 464.051 1192.45C464.051 1258.28 517.6 1311.84 583.431 1311.84C649.271 1311.84 702.829 1258.28 702.829 1192.45C702.829 1184.87 702.044 1177.49 700.687 1170.3L1082.36 949.935V788.471C1136.28 776.992 1176.85 729.034 1176.85 671.745ZM137.838 813.43L137.847 510.453C142.332 509.816 146.733 508.933 151.05 507.809L238.899 660.104L145.222 814.75C142.792 814.211 140.315 813.816 137.838 813.43ZM198.399 483.165C203.924 478.443 209.046 473.271 213.632 467.634L320.776 524.942L270.434 608.042L198.399 483.165ZM367.879 550.139L468.354 603.878C465.636 613.874 464.051 624.339 464.051 635.19C464.051 691.839 503.747 739.304 556.761 751.466V1076.18C552.007 1077.27 547.383 1078.67 542.861 1080.32L300.859 660.777L367.879 550.139ZM557.17 518.813C532.038 524.482 509.927 538.089 493.551 556.868L395.557 504.449L557.175 237.653L557.17 518.813ZM646.343 1091.18C635.316 1084.31 623.126 1079.17 610.1 1076.18V751.466C651.483 741.981 684.752 711.022 697.355 670.908L940.589 696.1C944.242 713.657 951.849 729.727 962.305 743.538L646.343 1091.18ZM1029.02 404.615V555.929C986.265 566.441 952.579 599.961 941.821 642.612L701.393 617.708C694.213 569.122 657.752 530.036 610.5 519.022V235.562C634.842 229.888 656.288 216.769 672.4 198.72L1029.02 404.615ZM509.686 213.084L348.45 479.252L237.161 419.718C239.229 410.925 240.441 401.808 240.441 392.393C240.441 377.429 237.556 363.167 232.513 349.96L494.471 198.715C499.123 203.934 504.193 208.748 509.686 213.084ZM231.101 972.984C235.98 959.963 238.778 945.947 238.778 931.244C238.778 893.449 221.072 859.762 193.575 837.87L269.319 712.839L497.984 1109.25C494.341 1112.99 491 1117.02 487.863 1121.21L231.101 972.984ZM704.469 1106.52L1003.14 777.917C1011.27 782.09 1019.94 785.325 1029.02 787.555V919.134L704.469 1106.52Z" fill="white"/>
<path d="M1484.97 1019.94V289.576H1573.41V614.814H1962.84V289.576H2051.28V1019.94H1962.84V693.27H1573.41V1019.94H1484.97Z" fill="white"/>
<path d="M2378.12 1032.77C2343.41 1032.77 2311.91 1026.24 2283.62 1013.16C2255.33 999.845 2232.86 980.707 2216.22 955.743C2199.58 930.542 2191.26 900.11 2191.26 864.448C2191.26 833.066 2197.44 807.627 2209.8 788.132C2222.16 768.399 2238.69 752.945 2259.37 741.771C2280.05 730.597 2302.88 722.276 2327.84 716.807C2353.04 711.102 2378.36 706.584 2403.8 703.256C2437.09 698.976 2464.07 695.767 2484.75 693.627C2505.68 691.25 2520.89 687.327 2530.4 681.859C2540.15 676.39 2545.02 666.881 2545.02 653.329V650.476C2545.02 615.289 2535.39 587.949 2516.14 568.453C2497.12 548.958 2468.23 539.21 2429.48 539.21C2389.3 539.21 2357.8 548.007 2334.97 565.6C2312.15 583.194 2296.1 601.976 2286.83 621.946L2206.95 593.417C2221.21 560.132 2240.23 534.218 2264.01 515.673C2288.02 496.891 2314.17 483.815 2342.46 476.445C2370.99 468.837 2399.05 465.033 2426.63 465.033C2444.22 465.033 2464.43 467.173 2487.25 471.452C2510.31 475.494 2532.54 483.934 2553.94 496.773C2575.57 509.611 2593.52 528.987 2607.79 554.902C2622.05 580.816 2629.19 615.527 2629.19 659.035V1019.94H2545.02V945.758H2540.74C2535.04 957.645 2525.53 970.365 2512.21 983.916C2498.9 997.468 2481.19 1009 2459.08 1018.51C2436.97 1028.02 2409.98 1032.77 2378.12 1032.77ZM2390.96 957.17C2424.25 957.17 2452.3 950.632 2475.13 937.556C2498.19 924.48 2515.54 907.6 2527.19 886.916C2539.08 866.232 2545.02 844.478 2545.02 821.654V744.624C2541.46 748.903 2533.61 752.826 2521.49 756.392C2509.6 759.721 2495.81 762.693 2480.12 765.308C2464.66 767.685 2449.57 769.825 2434.83 771.727C2420.32 773.391 2408.56 774.818 2399.52 776.006C2377.65 778.859 2357.2 783.496 2338.18 789.915C2319.4 796.096 2304.19 805.487 2292.54 818.088C2281.12 830.451 2275.42 847.331 2275.42 868.728C2275.42 897.971 2286.24 920.081 2307.87 935.059C2329.74 949.8 2357.44 957.17 2390.96 957.17Z" fill="white"/>
<path d="M2989.64 1031.35C2943.99 1031.35 2903.69 1019.82 2868.75 996.755C2833.8 973.455 2806.46 940.646 2786.72 898.327C2766.99 855.771 2757.12 805.487 2757.12 747.477C2757.12 689.942 2766.99 640.015 2786.72 597.696C2806.46 555.377 2833.92 522.687 2869.1 499.625C2904.29 476.564 2944.94 465.033 2991.07 465.033C3026.73 465.033 3054.9 470.977 3075.59 482.864C3096.51 494.514 3112.44 507.828 3123.37 522.806C3134.55 537.546 3143.22 549.671 3149.41 559.181H3156.54V289.576H3240.7V1019.94H3159.39V935.773H3149.41C3143.22 945.758 3134.43 958.359 3123.02 973.574C3111.6 988.552 3095.32 1001.99 3074.16 1013.87C3053 1025.52 3024.83 1031.35 2989.64 1031.35ZM3001.05 955.743C3034.81 955.743 3063.34 946.947 3086.64 929.353C3109.94 911.522 3127.65 886.916 3139.78 855.533C3151.9 823.913 3157.96 787.418 3157.96 746.05C3157.96 705.158 3152.02 669.377 3140.13 638.708C3128.25 607.8 3110.65 583.788 3087.35 566.67C3064.05 549.315 3035.29 540.637 3001.05 540.637C2965.39 540.637 2935.67 549.79 2911.9 568.097C2888.36 586.165 2870.65 610.772 2858.76 641.917C2847.11 672.824 2841.29 707.535 2841.29 746.05C2841.29 785.041 2847.23 820.465 2859.12 852.323C2871.24 883.944 2889.07 909.145 2912.61 927.927C2936.38 946.471 2965.87 955.743 3001.05 955.743Z" fill="white"/>
<path d="M3406.53 1019.94V472.166H3487.84V554.902H3493.55C3503.53 527.799 3521.6 505.807 3547.75 488.927C3573.9 472.047 3603.38 463.607 3636.19 463.607C3642.37 463.607 3650.1 463.726 3659.37 463.963C3668.65 464.201 3675.66 464.558 3680.41 465.033V550.622C3677.56 549.909 3671.02 548.839 3660.8 547.413C3650.81 545.748 3640.24 544.916 3629.06 544.916C3602.43 544.916 3578.66 550.503 3557.74 561.678C3537.05 572.614 3520.65 587.83 3508.52 607.325C3496.64 626.582 3490.69 648.574 3490.69 673.3V1019.94H3406.53Z" fill="white"/>
<path d="M3780.18 1019.94V472.166H3864.34V1019.94H3780.18ZM3822.97 380.871C3806.57 380.871 3792.42 375.284 3780.54 364.11C3768.89 352.936 3763.06 339.503 3763.06 323.812C3763.06 308.12 3768.89 294.688 3780.54 283.513C3792.42 272.339 3806.57 266.752 3822.97 266.752C3839.38 266.752 3853.41 272.339 3865.05 283.513C3876.94 294.688 3882.89 308.12 3882.89 323.812C3882.89 339.503 3876.94 352.936 3865.05 364.11C3853.41 375.284 3839.38 380.871 3822.97 380.871Z" fill="white"/>
<path d="M4363.7 795.977V472.166H4447.86V1019.94H4363.7V927.214H4357.99C4345.16 955.03 4325.18 978.686 4298.08 998.181C4270.98 1017.44 4236.74 1027.07 4195.37 1027.07C4161.14 1027.07 4130.71 1019.58 4104.08 1004.6C4077.45 989.385 4056.53 966.561 4041.31 936.129C4026.1 905.46 4018.49 866.826 4018.49 820.227V472.166H4102.65V814.521C4102.65 854.463 4113.83 886.321 4136.18 910.096C4158.76 933.871 4187.53 945.758 4222.48 945.758C4243.4 945.758 4264.68 940.409 4286.31 929.71C4308.19 919.011 4326.49 902.607 4341.23 880.496C4356.21 858.386 4363.7 830.213 4363.7 795.977Z" fill="white"/>
<path d="M4990.01 594.843L4914.41 616.24C4909.66 603.64 4902.64 591.396 4893.37 579.509C4884.34 567.383 4871.97 557.398 4856.28 549.552C4840.59 541.707 4820.5 537.784 4796.01 537.784C4762.49 537.784 4734.56 545.511 4712.21 560.964C4690.1 576.18 4679.04 595.556 4679.04 619.093C4679.04 640.015 4686.65 656.539 4701.87 668.664C4717.08 680.789 4740.86 690.893 4773.19 698.976L4854.5 718.947C4903.47 730.835 4939.97 749.022 4963.98 773.51C4987.99 797.76 5000 829.024 5000 867.301C5000 898.684 4990.97 926.738 4972.9 951.464C4955.07 976.19 4930.1 995.685 4898.01 1009.95C4865.91 1024.21 4828.58 1031.35 4786.03 1031.35C4730.16 1031.35 4683.91 1019.22 4647.3 994.972C4610.69 970.721 4587.51 935.297 4577.76 888.699L4657.64 868.728C4665.25 898.209 4679.64 920.319 4700.8 935.059C4722.19 949.8 4750.13 957.17 4784.6 957.17C4823.83 957.17 4854.97 948.849 4878.04 932.206C4901.33 915.326 4912.98 895.118 4912.98 871.581C4912.98 852.561 4906.33 836.632 4893.01 823.794C4879.7 810.718 4859.25 800.97 4831.68 794.551L4740.38 773.154C4690.22 761.266 4653.36 742.841 4629.83 717.877C4606.53 692.676 4594.88 661.175 4594.88 623.373C4594.88 592.466 4603.56 565.125 4620.91 541.35C4638.51 517.575 4662.4 498.912 4692.59 485.361C4723.02 471.809 4757.5 465.033 4796.01 465.033C4850.22 465.033 4892.78 476.921 4923.68 500.695C4954.83 524.47 4976.94 555.853 4990.01 594.843Z" fill="white"/>
</svg>
