<svg width="108" height="38" viewBox="0 0 108 38" fill="none" xmlns="http://www.w3.org/2000/svg">
<path d="M28.6098 14.9781C31.3246 14.9781 33.7038 13.5652 35.0371 11.444L31.783 9.45304C31.1254 10.5006 29.9503 11.199 28.6098 11.199C26.5489 11.199 24.8782 9.54996 24.8782 7.51588C24.8782 5.48182 26.5489 3.83283 28.6098 3.83283C29.9486 3.83283 31.1227 4.52941 31.7811 5.57518L35.0352 3.58418C33.702 1.46572 31.3237 0.0537109 28.6098 0.0537109C24.4344 0.0537109 21.0493 3.39478 21.0493 7.51588C21.0493 11.637 24.4344 14.9781 28.6098 14.9781Z" fill="#000000"/>
<path d="M32.6387 17.2831V17.2759H18.4582V22.2274H29.7811C30.2513 22.2274 30.5906 22.6708 30.4624 23.117C28.9453 28.3925 23.955 32.2255 18.0853 32.0567C11.4052 31.8646 6.02928 26.4329 5.98199 19.8361C5.93288 12.9941 11.538 7.43224 18.4582 7.43224V2.4422C8.76863 2.4422 0.914391 10.2006 0.925304 19.7678C0.936218 29.3503 8.75046 37.0521 18.4582 37.0521C27.8112 37.0521 35.4508 29.8233 35.961 20.7184C35.961 18.8495 34.3722 17.2867 32.6387 17.2822V17.2831Z" fill="#000000"/>
<path d="M91.7571 1.80231C93.8016 1.80231 95.0649 3.32114 95.0649 5.08952V17.9206H93.1586V10.9153H90.3338V17.9206H88.4275V5.08952C88.4275 3.20803 89.8054 1.80231 91.758 1.80231H91.7571ZM92.2164 3.68379H91.2751C90.7466 3.68379 90.3338 4.09222 90.3338 4.61286V9.05625H93.1586V4.61286C93.1586 4.09133 92.7448 3.68379 92.2173 3.68379H92.2164Z" fill="#000000"/>
<path d="M48.5601 18.1697C43.9891 18.1697 40.2684 14.4974 40.2911 9.98581C40.2911 5.47421 44.0345 1.80191 48.6055 1.82524C50.8792 1.82524 52.9237 2.75432 54.4162 4.22827L53.0838 5.54333C51.8669 4.34137 50.259 3.68429 48.5592 3.68429C45.1141 3.68429 42.151 6.4724 42.1974 10.0541C42.2438 13.5001 44.9995 16.2658 48.5364 16.3107C51.3613 16.3107 54.026 14.4292 54.7609 11.5046C54.8527 11.0738 54.669 10.9382 54.3707 10.9382H48.5601V9.05677H55.382C56.2315 9.05677 56.7599 9.64649 56.7599 10.5073C56.7599 14.4292 53.2002 18.1697 48.5601 18.1697Z" fill="#000000"/>
<path d="M63.0732 3.90952H59.7654V9.05577H62.9813V10.9148H59.7654V16.0611H63.0732V17.9201H57.8591V2.05048H63.0732V3.90952Z" fill="#000000"/>
<path d="M64.7053 2.05048H66.5662L69.3218 10.9139C69.3682 11.0503 69.4365 11.0953 69.5283 11.0728C69.6201 11.0503 69.6201 10.9139 69.6201 10.8233L69.551 2.05048H71.3654V17.9192H69.4819L66.749 9.03244C66.7262 8.91934 66.6798 8.80531 66.5652 8.82863C66.427 8.85109 66.4506 9.03244 66.4506 9.14641L66.5198 17.9192H64.7053V2.05048Z" fill="#000000"/>
<path d="M78.4164 3.90952H75.1087V9.05577H78.3246V10.9148H75.1087V16.0611H78.4164V17.9201H73.2024V2.05048H78.4164V3.90952Z" fill="#000000"/>
<path d="M84.3204 10.9148H81.9549V17.9201H80.0486V2.05048H83.8384C85.63 2.05048 86.6869 3.16087 86.6869 4.83859V8.26131C86.6869 9.19041 86.3649 9.6213 85.7456 9.98394C86.4113 10.3466 86.6869 10.8457 86.6869 11.6841V17.9183H84.7806V11.3897C84.7806 11.1177 84.5742 10.9139 84.3213 10.9139L84.3204 10.9148ZM84.7806 8.57909V4.38527C84.7806 4.11328 84.5742 3.90952 84.3213 3.90952H81.9558V9.05577H84.3213C84.5742 9.05577 84.7806 8.82863 84.7806 8.58001V8.57909Z" fill="#000000"/>
<path d="M102.051 17.9192H100.076C97.9165 17.9192 96.8142 16.6266 96.8142 14.7226V2.05048H98.7205V15.5844C98.7205 15.8339 98.9506 16.0602 99.2025 16.0602H102.051V17.9192Z" fill="#000000"/>
<path d="M59.9983 20.1849C62.0428 20.1849 63.3061 21.7038 63.3061 23.4721V36.3032H61.3998V29.2979H58.575V36.3032H56.6687V23.4721C56.6687 21.5907 58.0466 20.1849 59.9992 20.1849H59.9983ZM60.4576 22.0673H59.5163C58.9879 22.0673 58.575 22.4758 58.575 22.9964V27.4398H61.3998V22.9964C61.3998 22.4748 60.986 22.0673 60.4585 22.0673H60.4576Z" fill="#000000"/>
<path d="M75.1093 20.1849C77.1539 20.1849 78.4171 21.7038 78.4171 23.4721V36.3032H76.5109V29.2979H73.686V36.3032H71.7798V23.4721C71.7798 21.5907 73.1576 20.1849 75.1103 20.1849H75.1093ZM75.5687 22.0673H74.6273C74.0989 22.0673 73.686 22.4758 73.686 22.9964V27.4398H76.5109V22.9964C76.5109 22.4748 76.097 22.0673 75.5695 22.0673H75.5687Z" fill="#000000"/>
<path d="M99.6605 30.6121V33.3553C99.6605 35.2143 98.3517 36.5519 96.4446 36.5519H96.2608C94.3546 36.5519 93.0449 35.2143 93.0449 33.3553V31.4056H94.9285V34.217C94.9285 34.4666 95.135 34.6928 95.4105 34.6928H97.294C97.5696 34.6928 97.776 34.4657 97.776 34.217V29.7512C97.776 29.5017 97.5696 29.2979 97.294 29.2979H96.2608C94.3773 29.2979 93.0449 27.938 93.0449 26.1014V23.3815C93.0449 21.5449 94.3773 20.1849 96.2608 20.1849H96.4446C98.3281 20.1849 99.6605 21.5673 99.6605 23.3815V25.3536H97.7769V22.5198C97.7769 22.2702 97.5705 22.0664 97.295 22.0664H95.4114C95.1358 22.0664 94.9293 22.2702 94.9293 22.5198V26.9631C94.9293 27.2127 95.1358 27.4165 95.4114 27.4165H96.4218C98.3745 27.4165 99.6605 28.7315 99.6605 30.613V30.6121Z" fill="#000000"/>
<path d="M48.5827 36.5522C44.0117 36.5522 40.291 32.9023 40.291 28.3683C40.291 23.8343 44.0117 20.2078 48.5827 20.2078C51.4994 20.2078 54.0496 21.7041 55.542 23.9482L53.9568 24.968C53.1074 23.6305 51.3611 22.0659 48.5827 22.0659C45.0685 22.0659 42.1973 24.8998 42.1973 28.3683C42.1973 31.8369 45.0458 34.6932 48.5827 34.6932C51.2239 34.6932 53.0155 33.1519 53.9341 31.8144L55.5193 32.8342C54.0496 35.0783 51.4766 36.5522 48.5827 36.5522Z" fill="#000000"/>
<path d="M70.8597 22.294H68.4942V36.3037H66.588V22.294H64.2224V20.435H70.8597V22.294Z" fill="#000000"/>
<path d="M85.3994 36.3037H83.424C81.2649 36.3037 80.1626 35.0111 80.1626 33.1072V20.435H82.0689V33.9689C82.0689 34.2184 82.299 34.4446 82.5509 34.4446H85.3994V36.3037Z" fill="#000000"/>
<path d="M107.149 22.294H104.783V36.3037H102.877V22.294H100.511V20.435H107.149V22.294Z" fill="#000000"/>
<path d="M89.2535 29.2993V36.2813H87.3472V29.2993C85.8539 29.2993 84.9817 28.2562 84.9817 26.9646V20.4359H86.8879V26.9646C86.8879 27.2141 87.0944 27.4403 87.3472 27.4403H89.2535C89.5063 27.4403 89.7128 27.2132 89.7128 26.9646V20.4359H91.619V26.9646C91.619 28.2338 90.7923 29.2993 89.2535 29.2993Z" fill="#000000"/>
</svg>
